<svg width="1841" height="2034" viewBox="0 0 1841 2034" fill="none" xmlns="http://www.w3.org/2000/svg">
<g clip-path="url(#clip0_3039_173)">
<path d="M1128.42 445.77C1077.19 602.692 1157.95 773.445 1313.45 832.613L1315.33 833.322C1471.97 891.793 1645.89 815.83 1710.36 663.271L1774.17 687.123L1630.33 1710.63C1620.21 1782.61 1553.67 1832.76 1481.69 1822.64L113.304 1630.33C41.3288 1620.21 -8.81843 1553.66 1.29688 1481.69L193.611 113.304C194.366 107.932 195.438 102.681 196.801 97.5684L1128.42 445.77ZM389.7 1616.56H581.612C618.365 1616.56 650.264 1611.36 677.309 1600.96C704.353 1590.21 725.156 1575.12 739.719 1555.71C754.281 1535.94 761.562 1512.89 761.562 1486.54C761.562 1454.98 751.161 1430.54 730.357 1413.2C709.901 1395.87 680.775 1387.2 642.982 1387.2H556.128L564.449 1345.07H759.482L778.205 1252.5H462.513L389.7 1616.56ZM779.258 1616.56H901.998L928.522 1484.98H968.569L1012.78 1616.56H1259.5L1295.91 1553.11H1434.77L1446.74 1616.56H1568.96L1482.62 1252.5H1361.96L1138.03 1603.96L1073.11 1432.45L1219.25 1252.5H1082.99L978.971 1388.24H947.766L974.811 1252.5H852.069L779.258 1616.56ZM601.896 1472.49C624.432 1472.49 635.701 1480.47 635.701 1496.42C635.701 1506.82 631.54 1515.14 623.219 1521.38C615.244 1527.62 604.323 1530.74 590.454 1530.74H527.523L538.965 1472.49H601.896ZM1417.61 1464.69H1346.36L1399.93 1371.6L1417.61 1464.69ZM909.903 833.519C865.869 833.519 826.342 842.707 791.323 861.083C756.651 879.459 729.432 905.291 709.669 938.576C690.253 971.515 680.545 1009.13 680.545 1051.43C680.545 1083.33 687.999 1111.59 702.908 1136.21C718.164 1160.83 739.661 1180.07 767.399 1193.94C795.484 1207.46 828.076 1214.22 865.176 1214.22C909.21 1214.22 948.563 1205.03 983.235 1186.66C1018.25 1168.28 1045.47 1142.62 1064.89 1109.68C1084.65 1076.4 1094.53 1038.61 1094.53 996.306C1094.53 964.407 1086.91 936.149 1071.65 911.531C1056.74 886.914 1035.24 867.845 1007.16 854.322C979.421 840.453 947.003 833.519 909.903 833.519ZM275.312 1205.9H398.052L415.735 1116.45H478.665C515.418 1116.45 547.663 1110.03 575.401 1097.2C603.486 1084.37 624.983 1066.34 639.893 1043.11C655.148 1019.88 662.776 993.012 662.776 962.5C662.776 924.36 649.427 894.716 622.729 873.565C596.032 852.415 558.412 841.84 509.871 841.84H348.124L275.312 1205.9ZM1075.85 845.951C1074.51 843.755 1072.43 843.808 1071.2 846.069L1059.45 867.631C1073.82 879.647 1086.57 894.103 1097.04 910.852C1143.18 984.658 1129.93 1078.78 1070.2 1137.43L1082.43 1157.51C1083.77 1159.71 1085.85 1159.66 1087.08 1157.39L1110.51 1114.41C1111.74 1112.14 1114.58 1111.29 1116.85 1112.5L1162.2 1134C1164.47 1135.21 1166.23 1134.11 1166.14 1131.54L1162.2 1084.16C1162.1 1081.58 1164.11 1079.4 1166.69 1079.29L1322.66 1126.95C1325.23 1126.83 1326.19 1124.98 1324.8 1122.81L1191.32 1031.73C1189.93 1029.57 1190.57 1026.68 1192.73 1025.29L1274.7 1013.73C1276.87 1012.34 1276.78 1010.25 1274.49 1009.06L1190.36 971.537C1188.07 970.348 1187.2 967.537 1188.4 965.259L1245.15 929.548C1246.35 927.269 1245.23 925.488 1242.66 925.569L1159.78 919.488C1157.21 919.57 1155.07 917.551 1155 914.979L1183.02 858.868C1182.95 856.295 1181.11 855.296 1178.91 856.637L1107.72 889.294C1105.52 890.634 1102.65 889.939 1101.31 887.742L1075.85 845.951ZM899.501 932.855C921.691 932.855 939.028 939.27 951.51 952.099C964.339 964.927 970.753 982.09 970.753 1003.59C970.753 1023.7 966.939 1042.25 959.312 1059.24C951.684 1076.23 940.588 1089.75 926.025 1099.8C911.81 1109.86 894.994 1114.89 875.577 1114.89C853.387 1114.89 835.878 1108.47 823.049 1095.64C810.567 1082.81 804.325 1065.65 804.325 1044.15C804.325 1024.04 808.14 1005.49 815.768 988.505C823.396 971.515 834.317 957.992 848.532 947.938C863.095 937.883 880.084 932.856 899.501 932.855ZM492.708 936.496C523.22 936.496 538.476 948.805 538.476 973.422C538.476 988.678 533.794 1000.64 524.433 1009.31C515.071 1017.63 501.896 1021.79 484.906 1021.79H434.458L451.621 936.496H492.708ZM1369.21 535.766C1366.37 560.383 1380.49 584.691 1404.75 593.746C1429 602.796 1455.57 593.702 1469.57 573.273L1679.51 651.74C1621.43 787.287 1466.46 854.616 1326.83 802.499C1187.14 750.354 1114.18 597.812 1159.27 457.3L1369.21 535.766ZM800.657 422.862C756.623 422.862 717.096 432.05 682.077 450.427C647.405 468.803 620.186 494.634 600.423 527.92C581.006 560.859 571.299 598.479 571.299 640.779C571.299 672.678 578.753 700.935 593.662 725.553C608.918 750.17 630.415 769.414 658.153 783.283C686.238 796.805 718.83 803.566 755.93 803.566C799.964 803.566 839.317 794.378 873.989 776.002C909.008 757.626 936.226 731.967 955.643 699.028C975.406 665.743 985.288 627.95 985.288 585.649C985.288 553.751 977.66 525.492 962.404 500.875C947.495 476.258 925.998 457.188 897.913 443.666C870.175 429.797 837.757 422.862 800.657 422.862ZM166.126 795.245H288.867L315.392 663.663H355.438L399.646 795.245H529.667L459.976 611.134L606.12 431.184H469.857L365.84 566.927H334.635L361.679 431.184H238.938L166.126 795.245ZM790.255 522.199C812.445 522.199 829.782 528.614 842.264 541.442C855.092 554.271 861.507 571.434 861.507 592.931C861.507 613.041 857.693 631.591 850.065 648.58C842.438 665.57 831.342 679.092 816.779 689.147C802.564 699.202 785.747 704.229 766.331 704.229C744.141 704.229 726.631 697.815 713.802 684.986C701.32 672.158 695.079 654.995 695.079 633.498C695.079 613.388 698.894 594.838 706.521 577.849C714.149 560.859 725.07 547.336 739.286 537.281C753.849 527.226 770.838 522.199 790.255 522.199ZM209.203 67.0801C234.999 21.2503 287.026 -6.46414 342.249 1.29688L1710.64 193.61C1782.61 203.726 1832.76 270.274 1822.64 342.249L1778.86 653.752L1721.57 632.338C1768.85 477.082 1688.18 309.898 1534.66 251.481L1532.78 250.771C1378.12 193.041 1206.61 266.362 1140.25 415.065L209.203 67.0801ZM1171.13 426.609C1231.08 294.914 1383.64 230.219 1521.27 281.595C1658.98 332.999 1731.84 481.965 1690.68 620.794L1479.25 541.771C1479.14 519.501 1465.45 498.593 1443.35 490.344C1421.27 482.1 1397.25 488.91 1382.56 505.632L1171.13 426.609Z" fill="white"/>
<path d="M26.783 1972.58C23.071 1972.58 20.055 1971.5 17.735 1969.34C15.415 1967.17 14.255 1964.35 14.255 1960.87C14.255 1957.85 14.9897 1955.11 16.459 1952.63C18.0057 1950.16 20.0163 1948.22 22.491 1946.83C25.043 1945.44 27.7883 1944.74 30.727 1944.74C34.5164 1944.74 37.5323 1945.83 39.775 1947.99C42.095 1950.16 43.255 1952.98 43.255 1956.46C43.255 1959.48 42.5204 1962.22 41.051 1964.7C39.5817 1967.17 37.571 1969.1 35.019 1970.5C32.5444 1971.89 29.799 1972.58 26.783 1972.58ZM72.236 1972.58C76.9533 1972.58 80.3947 1971.62 82.56 1969.68C84.8027 1967.67 86.4653 1964.15 87.548 1959.13L97.64 1912.26H168.052L156.336 1995.78H126.408L134.876 1935.46H122.58L117.244 1960.87C114.615 1973.09 109.433 1981.98 101.7 1987.55C93.9667 1993.04 83.0627 1995.78 68.988 1995.78L72.236 1972.58ZM242.005 1998.1C230.559 1998.1 221.859 1995.13 215.905 1989.17C210.027 1983.14 207.166 1974.52 207.321 1963.3H199.897L195.257 1995.78H165.445L177.161 1912.26H207.089L202.449 1944.74H209.989C212.927 1933.45 218.186 1924.83 225.765 1918.88C233.421 1912.92 242.971 1909.94 254.417 1909.94C265.785 1909.94 274.601 1913 280.865 1919.11C287.129 1925.14 290.261 1933.68 290.261 1944.74C290.261 1947.68 290.029 1950.78 289.565 1954.02C288.25 1963.3 285.466 1971.27 281.213 1977.92C277.037 1984.49 271.585 1989.52 264.857 1993C258.206 1996.4 250.589 1998.1 242.005 1998.1ZM245.601 1972.58C249.158 1972.58 252.213 1970.88 254.765 1967.48C257.317 1964.08 258.979 1959.59 259.753 1954.02C260.062 1951.39 260.217 1949.54 260.217 1948.46C260.217 1944.36 259.405 1941.19 257.781 1938.94C256.234 1936.62 253.914 1935.46 250.821 1935.46C247.263 1935.46 244.209 1937.16 241.657 1940.57C239.182 1943.97 237.558 1948.46 236.785 1954.02C236.475 1956.65 236.321 1958.51 236.321 1959.59C236.321 1963.69 237.094 1966.9 238.641 1969.22C240.265 1971.46 242.585 1972.58 245.601 1972.58ZM290.62 1995.78L302.336 1912.26H377.04L373.792 1935.46H328.9L327.972 1942.31H342.936C353.144 1942.31 361.032 1944.36 366.6 1948.46C372.246 1952.48 375.068 1958.01 375.068 1965.04C375.068 1966.28 374.952 1967.6 374.72 1968.99C373.947 1974.4 371.898 1979.12 368.572 1983.14C365.247 1987.16 360.723 1990.29 355 1992.54C349.355 1994.7 342.82 1995.78 335.396 1995.78H290.62ZM336.092 1974.9C338.644 1974.9 340.732 1974.32 342.356 1973.16C344.058 1971.93 344.908 1970.34 344.908 1968.41C344.908 1966.78 344.251 1965.51 342.936 1964.58C341.699 1963.65 339.959 1963.19 337.716 1963.19H325.072L323.448 1974.9H336.092ZM470.208 1912.26L458.492 1995.78H430.884L437.148 1951.12H436.104L407.104 1995.78H376.944L388.66 1912.26H416.268L409.888 1957.16H411.048L440.048 1912.26H470.208ZM519.415 1995.78H489.487L497.839 1936.62H472.551L475.915 1912.26H556.303L552.939 1936.62H527.651L519.415 1995.78ZM618.118 1995.78H550.374L562.09 1912.26H628.674L625.426 1935.46H587.61L586.218 1944.74H622.99L620.438 1963.3H583.666L582.39 1972.58H621.366L618.118 1995.78ZM625.955 1972.58C630.672 1972.58 634.113 1971.62 636.279 1969.68C638.521 1967.67 640.184 1964.15 641.267 1959.13L651.359 1912.26H721.771L710.055 1995.78H680.127L688.595 1935.46H676.299L670.963 1960.87C668.333 1973.09 663.152 1981.98 655.419 1987.55C647.685 1993.04 636.781 1995.78 622.707 1995.78L625.955 1972.58ZM719.163 1995.78L730.879 1912.26H760.807L758.023 1931.87H772.987C779.329 1931.87 784.781 1932.99 789.343 1935.23C793.983 1937.4 797.463 1940.49 799.783 1944.51C802.181 1948.46 803.379 1953.02 803.379 1958.2C803.379 1959.75 803.263 1961.41 803.031 1963.19C802.103 1969.53 799.899 1975.17 796.419 1980.12C792.939 1985 788.415 1988.82 782.847 1991.61C777.279 1994.39 770.977 1995.78 763.939 1995.78H719.163ZM764.055 1970.26C766.685 1970.26 768.85 1969.53 770.551 1968.06C772.33 1966.51 773.219 1964.62 773.219 1962.38C773.219 1960.52 772.562 1959.05 771.247 1957.97C769.933 1956.81 768.193 1956.23 766.027 1956.23H754.543L752.571 1970.26H764.055ZM847.738 1996.94C839.695 1996.94 832.619 1995.47 826.51 1992.54C820.478 1989.6 815.76 1985.42 812.358 1980.01C809.032 1974.52 807.37 1968.18 807.37 1960.98C807.37 1958.51 807.524 1956.19 807.834 1954.02C808.994 1945.52 811.971 1938.02 816.766 1931.52C821.638 1925.02 827.824 1920 835.326 1916.44C842.827 1912.88 850.986 1911.1 859.802 1911.1C867.69 1911.1 874.611 1912.53 880.566 1915.4C886.598 1918.18 891.16 1922.16 894.254 1927.34C897.424 1932.45 898.816 1938.36 898.43 1945.09L870.706 1947.99C870.551 1944.36 869.198 1941.38 866.646 1939.06C864.171 1936.66 861.078 1935.46 857.366 1935.46C852.184 1935.46 847.776 1937.13 844.142 1940.45C840.584 1943.78 838.419 1948.3 837.646 1954.02C837.491 1954.87 837.414 1956.07 837.414 1957.62C837.414 1962.26 838.728 1965.93 841.358 1968.64C843.987 1971.27 847.544 1972.58 852.03 1972.58C855.742 1972.58 859.183 1971.42 862.354 1969.1C865.524 1966.71 867.728 1963.69 868.966 1960.06L896.226 1962.96C894.911 1969.68 891.972 1975.64 887.41 1980.82C882.847 1985.92 877.124 1989.91 870.242 1992.77C863.359 1995.55 855.858 1996.94 847.738 1996.94ZM928.526 1995.78H898.714L910.43 1912.26H940.358L935.95 1943.12H937.11L959.846 1912.26H994.646L961.818 1951.7L982.93 1995.78H948.13L934.558 1961.56H933.398L928.526 1995.78ZM1080.91 1912.26L1069.19 1995.78H1041.58L1047.85 1951.12H1046.8L1017.8 1995.78H987.643L999.359 1912.26H1026.97L1020.59 1957.16H1021.75L1050.75 1912.26H1080.91ZM1130.93 1907.62C1126.29 1907.62 1122.19 1907.04 1118.63 1905.88C1115.07 1904.65 1112.29 1902.98 1110.28 1900.9C1108.27 1898.73 1107.26 1896.29 1107.26 1893.59C1107.26 1893.05 1107.34 1892.31 1107.49 1891.38H1125.82C1125.74 1891.62 1125.71 1891.96 1125.71 1892.43C1125.71 1893.82 1126.32 1894.98 1127.56 1895.91C1128.8 1896.76 1130.42 1897.18 1132.43 1897.18C1134.75 1897.18 1136.8 1896.64 1138.58 1895.56C1140.36 1894.48 1141.52 1893.08 1142.06 1891.38H1160.39C1159.85 1894.48 1158.19 1897.26 1155.4 1899.74C1152.7 1902.21 1149.22 1904.14 1144.96 1905.54C1140.71 1906.93 1136.03 1907.62 1130.93 1907.62ZM1078.38 1995.78L1090.09 1912.26H1117.7L1111.44 1956.92H1112.6L1141.48 1912.26H1171.64L1159.93 1995.78H1132.32L1138.7 1950.89H1137.54L1108.54 1995.78H1078.38ZM1234.11 1989.98C1222.89 1989.52 1214.31 1986.7 1208.35 1981.52C1202.4 1976.26 1199.42 1969.14 1199.42 1960.17C1199.42 1957.93 1199.58 1955.88 1199.89 1954.02C1201.36 1943.35 1205.92 1934.84 1213.57 1928.5C1221.31 1922.08 1231.52 1918.6 1244.2 1918.06L1245.47 1908.78H1275.4L1274.01 1918.06C1285.22 1918.68 1293.77 1921.62 1299.65 1926.88C1305.52 1932.06 1308.46 1939.06 1308.46 1947.88C1308.46 1950.12 1308.31 1952.17 1308 1954.02C1306.53 1964.62 1301.97 1973.09 1294.31 1979.43C1286.73 1985.77 1276.6 1989.29 1263.92 1989.98L1262.64 1999.26H1232.83L1234.11 1989.98ZM1241.07 1940.1C1238.13 1940.1 1235.5 1941.34 1233.18 1943.82C1230.86 1946.29 1229.39 1949.69 1228.77 1954.02C1228.62 1955.42 1228.54 1956.42 1228.54 1957.04C1228.54 1960.44 1229.31 1963.11 1230.86 1965.04C1232.48 1966.98 1234.61 1967.94 1237.24 1967.94L1241.07 1940.1ZM1267.05 1967.94C1270.07 1967.94 1272.7 1966.71 1274.94 1964.23C1277.26 1961.68 1278.73 1958.24 1279.35 1953.91C1279.5 1952.52 1279.58 1951.55 1279.58 1951.01C1279.58 1947.68 1278.77 1945.05 1277.14 1943.12C1275.52 1941.11 1273.47 1940.1 1270.99 1940.1L1267.05 1967.94ZM1320.88 1996.94C1317.4 1996.94 1314.04 1996.71 1310.79 1996.25C1307.54 1995.86 1305.07 1995.32 1303.37 1994.62L1306.38 1973.16C1307.85 1973.78 1309.48 1974.25 1311.25 1974.56C1313.11 1974.79 1314.77 1974.9 1316.24 1974.9C1318.87 1974.9 1321.27 1974.44 1323.43 1973.51C1325.6 1972.58 1327.15 1971.38 1328.07 1969.92L1328.65 1968.99L1305.34 1912.26H1339.44L1348.49 1941.26H1349.65L1363.8 1912.26H1398.02L1359.97 1974.44C1355.03 1982.48 1349.53 1988.24 1343.5 1991.72C1337.47 1995.2 1329.93 1996.94 1320.88 1996.94ZM1442.43 1995.78H1412.5L1420.85 1936.62H1395.57L1398.93 1912.26H1479.32L1475.95 1936.62H1450.67L1442.43 1995.78ZM1473.39 1995.78L1485.11 1912.26H1559.81L1556.56 1935.46H1511.67L1510.74 1942.31H1525.71C1535.91 1942.31 1543.8 1944.36 1549.37 1948.46C1555.02 1952.48 1557.84 1958.01 1557.84 1965.04C1557.84 1966.28 1557.72 1967.6 1557.49 1968.99C1556.72 1974.4 1554.67 1979.12 1551.34 1983.14C1548.02 1987.16 1543.49 1990.29 1537.77 1992.54C1532.12 1994.7 1525.59 1995.78 1518.17 1995.78H1473.39ZM1518.86 1974.9C1521.41 1974.9 1523.5 1974.32 1525.13 1973.16C1526.83 1971.93 1527.68 1970.34 1527.68 1968.41C1527.68 1966.78 1527.02 1965.51 1525.71 1964.58C1524.47 1963.65 1522.73 1963.19 1520.49 1963.19H1507.84L1506.22 1974.9H1518.86ZM1604.26 1996.94C1595.75 1996.94 1588.37 1995.55 1582.1 1992.77C1575.84 1989.91 1571 1985.81 1567.6 1980.47C1564.28 1975.14 1562.61 1968.79 1562.61 1961.45C1562.61 1959.36 1562.81 1956.88 1563.19 1954.02C1564.43 1945.21 1567.45 1937.59 1572.24 1931.17C1577.04 1924.68 1583.22 1919.73 1590.8 1916.32C1598.38 1912.84 1606.89 1911.1 1616.32 1911.1C1624.83 1911.1 1632.17 1912.53 1638.36 1915.4C1644.63 1918.18 1649.42 1922.28 1652.75 1927.69C1656.15 1933.03 1657.85 1939.41 1657.85 1946.83C1657.85 1949.38 1657.69 1951.78 1657.39 1954.02C1656.15 1962.84 1653.09 1970.5 1648.22 1976.99C1643.43 1983.41 1637.24 1988.36 1629.66 1991.84C1622.08 1995.24 1613.61 1996.94 1604.26 1996.94ZM1607.62 1972.58C1612.8 1972.58 1617.21 1970.92 1620.85 1967.6C1624.48 1964.27 1626.68 1959.75 1627.46 1954.02C1627.61 1953.17 1627.69 1951.97 1627.69 1950.43C1627.69 1945.71 1626.37 1942.04 1623.75 1939.41C1621.12 1936.78 1617.48 1935.46 1612.84 1935.46C1607.66 1935.46 1603.25 1937.13 1599.62 1940.45C1595.98 1943.78 1593.78 1948.3 1593.01 1954.02C1592.85 1954.87 1592.77 1956.07 1592.77 1957.62C1592.77 1962.26 1594.09 1965.93 1596.72 1968.64C1599.42 1971.27 1603.06 1972.58 1607.62 1972.58ZM1657.04 1972.58C1661.76 1972.58 1665.2 1971.62 1667.36 1969.68C1669.61 1967.67 1671.27 1964.15 1672.35 1959.13L1682.44 1912.26H1752.86L1741.14 1995.78H1711.21L1719.68 1935.46H1707.38L1702.05 1960.87C1699.42 1973.09 1694.24 1981.98 1686.5 1987.55C1678.77 1993.04 1667.87 1995.78 1653.79 1995.78L1657.04 1972.58ZM1792.16 1972.58C1788.45 1972.58 1785.43 1971.5 1783.11 1969.34C1780.79 1967.17 1779.63 1964.35 1779.63 1960.87C1779.63 1957.85 1780.36 1955.11 1781.83 1952.63C1783.38 1950.16 1785.39 1948.22 1787.87 1946.83C1790.42 1945.44 1793.16 1944.74 1796.1 1944.74C1799.89 1944.74 1802.91 1945.83 1805.15 1947.99C1807.47 1950.16 1808.63 1952.98 1808.63 1956.46C1808.63 1959.48 1807.9 1962.22 1806.43 1964.7C1804.96 1967.17 1802.95 1969.1 1800.39 1970.5C1797.92 1971.89 1795.17 1972.58 1792.16 1972.58Z" fill="white"/>
</g>
<defs>
<clipPath id="clip0_3039_173">
<rect width="1841" height="2034" fill="white"/>
</clipPath>
</defs>
</svg>
